<?xml version="1.0" encoding="UTF-8" standalone="no"?>
<!-- Created with Inkscape (http://www.inkscape.org/) -->

<svg
   width="97.934288mm"
   height="20.565886mm"
   viewBox="0 0 97.934288 20.565886"
   version="1.1"
   id="svg1"
   inkscape:version="1.4.2 (f4327f4, 2025-05-13)"
   sodipodi:docname="mooba-vector-logo-blanco.svg"
   inkscape:export-filename="mooba-vector-logo-blanco-seleccionado.svg"
   inkscape:export-xdpi="96"
   inkscape:export-ydpi="96"
   xmlns:inkscape="http://www.inkscape.org/namespaces/inkscape"
   xmlns:sodipodi="http://sodipodi.sourceforge.net/DTD/sodipodi-0.dtd"
   xmlns="http://www.w3.org/2000/svg"
   xmlns:svg="http://www.w3.org/2000/svg">
  <sodipodi:namedview
     id="namedview1"
     pagecolor="#ffffff"
     bordercolor="#000000"
     borderopacity="0.25"
     inkscape:showpageshadow="2"
     inkscape:pageopacity="0.0"
     inkscape:pagecheckerboard="0"
     inkscape:deskcolor="#d1d1d1"
     inkscape:document-units="mm"
     inkscape:zoom="1.0093364"
     inkscape:cx="397.29073"
     inkscape:cy="500.8241"
     inkscape:window-width="2560"
     inkscape:window-height="1351"
     inkscape:window-x="-9"
     inkscape:window-y="-9"
     inkscape:window-maximized="1"
     inkscape:current-layer="layer1">
    <inkscape:page
       x="4.7379529e-17"
       y="0"
       width="97.93428"
       height="20.565886"
       id="page2"
       margin="0"
       bleed="0" />
  </sodipodi:namedview>
  <defs
     id="defs1">
    <clipPath
       clipPathUnits="userSpaceOnUse"
       id="clipPath1">
      <path
         d="M 0,0 H 596 V 842 H 0 Z"
         id="path1" />
    </clipPath>
    <clipPath
       clipPathUnits="userSpaceOnUse"
       id="clipPath3">
      <path
         d="M 0,0 H 596 V 842 H 0 Z"
         id="path3" />
    </clipPath>
    <clipPath
       clipPathUnits="userSpaceOnUse"
       id="clipPath13">
      <path
         d="M 0,0 H 596 V 842 H 0 Z"
         id="path13" />
    </clipPath>
    <clipPath
       clipPathUnits="userSpaceOnUse"
       id="clipPath11">
      <path
         d="M 0,0 H 596 V 842 H 0 Z"
         id="path11" />
    </clipPath>
    <clipPath
       clipPathUnits="userSpaceOnUse"
       id="clipPath7">
      <path
         d="M 0,0 H 596 V 842 H 0 Z"
         id="path7" />
    </clipPath>
    <clipPath
       clipPathUnits="userSpaceOnUse"
       id="clipPath9">
      <path
         d="M 0,0 H 596 V 842 H 0 Z"
         id="path9" />
    </clipPath>
    <clipPath
       clipPathUnits="userSpaceOnUse"
       id="clipPath5">
      <path
         d="M 0,0 H 596 V 842 H 0 Z"
         id="path5" />
    </clipPath>
  </defs>
  <g
     inkscape:label="Capa 1"
     inkscape:groupmode="layer"
     id="layer1"
     transform="translate(-3.8749599,-1.8270835)">
    <g
       id="g2"
       transform="matrix(0.26458333,0,0,0.26458333,1.0044072,0.212067)"
       inkscape:export-filename="logo-mooba-blanco-600.png"
       inkscape:export-xdpi="155.61455"
       inkscape:export-ydpi="155.61455">
      <path
         d="m 279.988,18.777 c -3.183,0 -5.761,2.578 -5.761,5.762 0,3.18 2.578,5.758 5.761,5.758 3.18,0 5.758,-2.578 5.758,-5.758 0,-3.184 -2.578,-5.762 -5.758,-5.762"
         style="fill:#ff8a00;fill-opacity:1;fill-rule:nonzero;stroke:none"
         transform="scale(1.3333333)"
         clip-path="url(#clipPath1)"
         id="path2" />
    </g>
    <g
       id="g4"
       transform="matrix(0.26458333,0,0,0.26458333,1.0044072,0.212067)">
      <path
         d="m 269.586,19.895 c 3.18,0 5.758,-2.579 5.758,-5.762 0,-3.18 -2.578,-5.758 -5.758,-5.758 -3.184,0 -5.762,2.578 -5.762,5.758 0,3.183 2.578,5.762 5.762,5.762"
         style="fill:#ff8a00;fill-opacity:1;fill-rule:nonzero;stroke:none"
         transform="scale(1.3333333)"
         clip-path="url(#clipPath3)"
         id="path4" />
    </g>
    <g
       id="g6"
       transform="matrix(0.26458333,0,0,0.26458333,1.0044072,0.212067)"
       style="fill:#ffffff">
      <path
         d="m 253.207,52.676 c -6.539,0 -10.973,-5.371 -10.973,-11.516 v -0.156 c 0,-6.152 4.047,-11.367 10.817,-11.367 6.539,0 10.976,5.371 10.976,11.523 v 0.152 c 0,6.149 -4.05,11.364 -10.82,11.364 m 0,-33.235 c -13,0 -22.652,9.731 -22.652,21.719 v 0.152 c 0,11.989 9.574,21.563 22.496,21.563 4.457,0 8.504,-1.168 11.918,-3.152 0.261,0.398 0.562,0.765 0.906,1.089 0.316,0.297 0.672,0.551 1.047,0.77 3.418,-1.156 6.398,-3.055 8.777,-5.5 V 40.273 c 0,-0.324 -0.031,-0.64 -0.082,-0.949 -0.851,-11.187 -10.101,-19.883 -22.41,-19.883"
         style="fill:#ffffff;fill-opacity:1;fill-rule:nonzero;stroke:none"
         transform="scale(1.3333333)"
         clip-path="url(#clipPath5)"
         id="path6" />
    </g>
    <g
       id="g8"
       transform="matrix(0.26458333,0,0,0.26458333,1.0044072,0.212067)"
       style="fill:#ffffff">
      <path
         d="m 169.023,41.312 c 0,6.149 -4.046,11.364 -10.816,11.364 -6.539,0 -10.977,-5.371 -10.977,-11.516 v -0.156 c 0,-6.152 4.047,-11.363 10.821,-11.363 6.539,0 10.972,5.367 10.972,11.519 z M 158.207,19.441 c -13,0 -22.648,9.731 -22.648,21.719 v 0.152 c 0,11.989 9.57,21.563 22.492,21.563 12.996,0 22.648,-9.73 22.648,-21.715 v -0.156 c 0,-11.988 -9.574,-21.563 -22.492,-21.563"
         style="fill:#ffffff;fill-opacity:1;fill-rule:nonzero;stroke:none"
         transform="scale(1.3333333)"
         clip-path="url(#clipPath7)"
         id="path8" />
    </g>
    <g
       id="g10"
       transform="matrix(0.26458333,0,0,0.26458333,1.0044072,0.212067)"
       style="fill:#ffffff">
      <path
         d="m 216.5,41.312 c 0,6.149 -4.047,11.364 -10.816,11.364 -6.539,0 -10.977,-5.371 -10.977,-11.516 v -0.156 c 0,-6.152 4.047,-11.363 10.82,-11.363 6.535,0 10.973,5.367 10.973,11.519 z M 205.684,19.441 c -4.047,0 -7.77,0.946 -10.977,2.606 V 9.59 c 0,-1.676 -0.715,-3.18 -1.852,-4.242 -0.316,-0.297 -0.667,-0.551 -1.043,-0.77 -3.417,1.156 -6.402,3.055 -8.781,5.5 V 38.32 c 0,0.328 0.035,0.719 0.09,1.129 -0.047,0.567 -0.086,1.133 -0.086,1.711 v 0.152 c 0,11.989 9.57,21.563 22.492,21.563 12.996,0 22.649,-9.73 22.649,-21.715 v -0.156 c 0,-11.988 -9.574,-21.563 -22.492,-21.563"
         style="fill:#ffffff;fill-opacity:1;fill-rule:nonzero;stroke:none"
         transform="scale(1.3333333)"
         clip-path="url(#clipPath9)"
         id="path10" />
    </g>
    <g
       id="g12"
       transform="matrix(0.26458333,0,0,0.26458333,1.0044072,0.212067)"
       style="fill:#ffffff">
      <path
         d="m 122.375,41.312 c 0,6.149 -4.047,11.364 -10.82,11.364 -6.539,0 -10.973,-5.371 -10.973,-11.516 v -0.156 c 0,-6.152 4.047,-11.363 10.816,-11.363 6.54,0 10.977,5.367 10.977,11.519 z m -10.82,-21.871 c -12.996,0 -22.649,9.731 -22.649,21.719 v 0.152 c 0,11.989 9.574,21.563 22.492,21.563 13,0 22.649,-9.73 22.649,-21.715 v -0.156 c 0,-11.988 -9.57,-21.563 -22.492,-21.563"
         style="fill:#ffffff;fill-opacity:1;fill-rule:nonzero;stroke:none"
         transform="scale(1.3333333)"
         clip-path="url(#clipPath11)"
         id="path12" />
    </g>
    <g
       id="g14"
       transform="matrix(0.26458333,0,0,0.26458333,1.0044072,0.212067)"
       style="fill:#ffffff">
      <path
         d="m 64.258,19.441 c -6.813,0 -12.688,2.688 -16.75,6.954 -4.039,-4.274 -9.906,-6.954 -16.719,-6.954 -4.457,0 -8.508,1.164 -11.926,3.149 -0.258,-0.395 -0.558,-0.762 -0.902,-1.086 -0.316,-0.297 -0.668,-0.547 -1.043,-0.77 -3.418,1.161 -6.402,3.055 -8.781,5.5 v 25.411 c 0,0.003 0,0.007 0,0.011 v 4.914 c 0,1.676 0.718,3.18 1.855,4.242 0.313,0.297 0.668,0.551 1.043,0.774 3.418,-1.16 6.399,-3.059 8.777,-5.504 V 40.273 c 0,-0.097 -0.007,-0.191 -0.015,-0.289 h 0.058 c 0.422,-5.695 4.383,-10.343 10.778,-10.343 6.117,0 10.394,4.703 10.918,10.343 h 0.054 v 11.661 c 0,0.003 0,0.007 0,0.011 v 4.914 c 0,1.676 0.719,3.18 1.852,4.242 0.316,0.297 0.668,0.551 1.047,0.774 3.414,-1.16 6.398,-3.059 8.777,-5.504 V 40.273 c 0,-0.097 -0.008,-0.191 -0.015,-0.289 h 0.058 c 0.422,-5.695 4.383,-10.343 10.778,-10.343 6.117,0 10.394,4.703 10.918,10.343 h 0.054 v 11.661 c 0,0.003 0,0.007 0,0.011 v 4.914 c 0,1.676 0.719,3.18 1.852,4.242 0.316,0.297 0.668,0.551 1.047,0.774 3.414,-1.16 6.398,-3.059 8.777,-5.504 V 40.273 c 0,-0.351 -0.035,-0.691 -0.098,-1.023 C 85.77,28.098 76.539,19.441 64.258,19.441"
         style="fill:#ffffff;fill-opacity:1;fill-rule:nonzero;stroke:none"
         transform="scale(1.3333333)"
         clip-path="url(#clipPath13)"
         id="path14" />
    </g>
  </g>
</svg>
